<svg xmlns="http://www.w3.org/2000/svg" viewBox="0 0 274.95 112.81"><defs><style>.cls-1,.cls-2{fill:#0288d1;}.cls-2{font-size:33.63px;font-family:Arial-BoldMT, Arial;font-weight:700;letter-spacing:-0.04em;}</style></defs><title>almost-logo</title><g id="Layer_2" data-name="Layer 2"><g id="Layer_1-2" data-name="Layer 1"><path class="cls-1" d="M246.46,35.59a16.39,16.39,0,0,0-3.69-.5c-3.66-.06-7.33,0-11,0-1.17,0-1.55-.35-.93-1.46s1.19-2.19,1.78-3.3c2-3.67,4-7.32,5.84-11,.7-1.37,1-2.91-.43-4.12a4.1,4.1,0,0,0-4.43-.7,7,7,0,0,0-3.7,3.86c-2.48,4.9-5,9.79-7.38,14.73a3.18,3.18,0,0,1-3.27,2.07,13.51,13.51,0,0,0-4.58.81,3.05,3.05,0,0,0-2,3.17c.14,1.59,1.44,2.12,2.81,2.41a4.38,4.38,0,0,0,1.24.14c1.4-.08,1.51.46,1,1.62-2.09,4.44-4.11,8.9-6.16,13.36-.08-6.38-3.66-10.68-8.49-14.2-2.09-1.53-2.12-1.49-.41-3.5s1.22-3.73-1.15-4.71a5.73,5.73,0,0,0-4.38-.14,12.84,12.84,0,0,0-5.93,4.8,2.5,2.5,0,0,0-.22,2.25c.87,1.21.46,1.91-.47,2.7-1.32,1.14-2.54,2.41-3.94,3.45a12.9,12.9,0,0,1-3.87,2.17c-2.33.69-3.06-.17-2.44-2.47.13-.49.3-1,.39-1.45,1.19-6.41-1.63-10.46-8.08-11.62a17.1,17.1,0,0,0-10,1.32c-6.76,2.9-10.69,8.4-12.93,15.08a9.13,9.13,0,0,1-4.34,5.46,25.85,25.85,0,0,1-5.67,2.45c-2.08.56-3-.68-2.19-2.72a8.54,8.54,0,0,1,1.09-2c1.19-1.61,2.42-3.18,3.67-4.74a16.6,16.6,0,0,0,3.79-8.3c.35-2.77-1-5.38-3.6-6.13a15.74,15.74,0,0,0-5.63-.52A13.81,13.81,0,0,0,129,37.65c-.65.57-1.11.82-1.73-.17-2.17-3.52-4.3-4.37-8.36-3.6-3.39.65-6.11,2.53-8.67,4.7a13.45,13.45,0,0,1-1.4.91c-.06-.48-.12-1-.19-1.44-.37-2.37-2.28-3.59-4.33-2.42A9.13,9.13,0,0,0,101.15,39c-1.21,2.08-2,4.4-3.07,6.55a8.11,8.11,0,0,1-2,2.75c-3.42,2.64-6.9,5.21-10.48,7.64a22,22,0,0,1-4.94,2.36c-1.58.58-2.28,0-2-1.65A15.51,15.51,0,0,1,80,52.35c5.81-12.07,11.69-24.12,17.55-36.17.47-1,1-1.92,1.42-2.92.56-1.36.78-2.79-.37-4a4,4,0,0,0-4.37-1,6.22,6.22,0,0,0-3.77,3.75c-3.54,7.53-7.13,15-10.63,22.6C76.82,41.07,73.92,47.52,71,54c-.1.21-.18.43-.26.64l-.33-.44c0-.07-.1-.14-.14-.21-.57-1-1.23-1-2.23-.44C58.84,59.05,32.81,64,22.41,62.43a19.41,19.41,0,0,1-9.77-4.16C7.52,54,6.92,48.22,8.06,42.29,11.48,24.45,25.58,8.42,45.13,6.49,51,5.91,56.8,6.37,62.24,8.85c5.19,2.37,8,6.52,7.84,12.26A39.32,39.32,0,0,1,61.5,44.36a11.62,11.62,0,0,1-6.45,4.06c-2,.5-2.43,0-1.84-2,1.26-4.22,2.6-8.43,3.9-12.64S59.75,25.39,61,21.15c.8-2.75-.31-5.48-2.56-6-4.65-1-9.38-1.69-14.13-.81-10.55,2-18.65,7.73-24.6,16.54a22.74,22.74,0,0,0-4.12,13.65,9.13,9.13,0,0,0,6.64,9,19,19,0,0,0,13.19-.84,27.73,27.73,0,0,0,12.3-9.87,2.43,2.43,0,0,1,.69-.48,5.36,5.36,0,0,1-.09.7c-.68,2.23-1.43,4.44-2,6.69-.87,3.29.13,4.6,3.49,4.54a20.18,20.18,0,0,0,11.06-3.49c11.56-7.8,17-18.85,16.49-32.7C77.1,12.16,74,7.72,69.06,4.56,63.46,1,57.18,0,50.67,0A43.76,43.76,0,0,0,28.23,5.9c-15.39,8.6-25,21.47-27.89,39C-.82,52,.88,58.5,6.65,63.41a24.13,24.13,0,0,0,10,4.86A49.94,49.94,0,0,0,35,69.12c6.57-.81,28.89-6.59,34.54-10.25l.33-.22a16.89,16.89,0,0,0,0,2.66,5,5,0,0,0,5,4.93,13.47,13.47,0,0,0,7.76-1.45C85.85,63,88.9,61,92,59.14c-.22,1-.49,1.91-.63,2.88-.28,1.93.39,3.36,1.81,4a3.62,3.62,0,0,0,4.46-1.19,15.44,15.44,0,0,0,2-3.42A58.35,58.35,0,0,1,107.75,48a17.18,17.18,0,0,1,7.1-5.75c1.21-.47,2.65-1.15,3.67.14s-.07,2.39-.72,3.41c-1.88,2.94-4,5.75-5.74,8.77a44.38,44.38,0,0,0-3.32,7.21,3,3,0,0,0,1.4,4.07,3.75,3.75,0,0,0,4.75-.86,14.82,14.82,0,0,0,2-3.41,58,58,0,0,1,7.92-13.24c2-2.49,4.14-4.83,7.19-6,1.2-.47,2.71-1.27,3.69,0s.06,2.56-.71,3.67c-1.23,1.77-2.6,3.46-3.81,5.25-1.6,2.34-3.09,4.73-3.49,7.64-.55,4,1.64,6.9,5.62,7.35a12.75,12.75,0,0,0,7.31-1.1,67.19,67.19,0,0,0,6.65-3.9c1.09-.72,1.54-.7,2.25.47a9.37,9.37,0,0,0,8.82,4.63,21,21,0,0,0,16.34-7.81c1.58-1.91,2.84-2.82,5.23-1.68,1.05.51,2.1.62,2.54,2a9.88,9.88,0,0,0,7.9,6.86,24,24,0,0,0,7.92.44c6-.79,11.36-2.84,13.27-9.51-.06,1.5-.24,3-.16,4.49.16,3.26,2,5,5.21,5.18a17.46,17.46,0,0,0,9.33-2.3C231.39,61.15,236,57.18,240.44,53A6.68,6.68,0,0,0,242,50.26a2.39,2.39,0,0,0-1-2.86c-1-.7-1.89-.07-2.7.57-.45.36-.88.77-1.36,1.09-4.22,2.8-8.4,5.67-12.71,8.33-1,.63-2.94,1.21-3.64.7-1.25-.92-.41-2.61.18-3.87,1.77-3.77,3.63-7.49,5.41-11.25a2.34,2.34,0,0,1,2.37-1.43c5-.07,10-.18,15-.3a12.07,12.07,0,0,0,2.94-.35,2.54,2.54,0,0,0,2.06-2.52A2.68,2.68,0,0,0,246.46,35.59ZM41.89,43.15a17,17,0,0,1-12.15,5c-5.93,0-8.24-2.92-6.58-8.69,3-10.55,10.08-17.07,20.7-19.43,2.83-.63,5.94,0,8.92.17,1.3.05,1.48.83,1.11,1.9C51.2,29.87,48,37.35,41.89,43.15Zm121,15c-2.55.66-4.16-.28-4.87-2.84C156.58,50,161,42.93,166.37,41.83c3.46-.7,5.17,1,5.1,5.05A11.91,11.91,0,0,1,162.92,58.19Zm37,.49c-4.27,1.6-8.17.64-11.7-2-1.63-1.22-1.5-1.75,0-3.28,2.36-2.45,4.64-5,7-7.41.28-.29,1.13-.51,1.38-.31,3.12,2.33,5.84,5,5.94,8.34C202.49,57,201.88,57.94,199.91,58.68Z"/><text class="cls-2" transform="translate(188.19 100.15) scale(1.22 1)">CMS</text></g></g></svg>